<mxfile>
    <diagram id="kgpKYQtTHZ0yAKxKKP6v" name="Page-1">
        <mxGraphModel dx="948" dy="554" grid="1" gridSize="10" guides="1" tooltips="1" connect="1" arrows="1" fold="1" page="1" pageScale="1" pageWidth="850" pageHeight="1100" math="0" shadow="0">
            <root>
                <mxCell id="0"/>
                <mxCell id="1" parent="0"/>
                <mxCell id="3nuBFxr9cyL0pnOWT2aG-1" value="LOWLEVEL" style="shape=umlLifeline;perimeter=lifelinePerimeter;container=1;collapsible=0;recursiveResize=0;rounded=0;shadow=0;strokeWidth=1;" parent="1" vertex="1">
                    <mxGeometry x="241.48000000000002" y="230" width="100" height="300" as="geometry"/>
                </mxCell>
                <mxCell id="SoR2m_-n7boe2hJUEqRi-10" value="" style="points=[];perimeter=orthogonalPerimeter;rounded=0;shadow=0;strokeWidth=1;" parent="3nuBFxr9cyL0pnOWT2aG-1" vertex="1">
                    <mxGeometry x="45" y="160" width="10" height="40" as="geometry"/>
                </mxCell>
                <mxCell id="SoR2m_-n7boe2hJUEqRi-11" value="User Action" style="verticalAlign=bottom;startArrow=oval;endArrow=block;startSize=8;shadow=0;strokeWidth=1;" parent="3nuBFxr9cyL0pnOWT2aG-1" target="SoR2m_-n7boe2hJUEqRi-10" edge="1">
                    <mxGeometry relative="1" as="geometry">
                        <mxPoint x="-15" y="160" as="sourcePoint"/>
                    </mxGeometry>
                </mxCell>
                <mxCell id="SoR2m_-n7boe2hJUEqRi-1" value="BACKEND" style="shape=umlLifeline;perimeter=lifelinePerimeter;container=1;collapsible=0;recursiveResize=0;rounded=0;shadow=0;strokeWidth=1;" parent="1" vertex="1">
                    <mxGeometry x="425" y="230" width="100" height="300" as="geometry"/>
                </mxCell>
                <mxCell id="SoR2m_-n7boe2hJUEqRi-2" value="" style="points=[];perimeter=orthogonalPerimeter;rounded=0;shadow=0;strokeWidth=1;" parent="SoR2m_-n7boe2hJUEqRi-1" vertex="1">
                    <mxGeometry x="45" y="80" width="10" height="60" as="geometry"/>
                </mxCell>
                <mxCell id="SoR2m_-n7boe2hJUEqRi-3" value="User" style="shape=umlLifeline;perimeter=lifelinePerimeter;container=1;collapsible=0;recursiveResize=0;rounded=0;shadow=0;strokeWidth=1;" parent="1" vertex="1">
                    <mxGeometry x="545" y="230" width="100" height="300" as="geometry"/>
                </mxCell>
                <mxCell id="SoR2m_-n7boe2hJUEqRi-4" value="" style="points=[];perimeter=orthogonalPerimeter;rounded=0;shadow=0;strokeWidth=1;" parent="SoR2m_-n7boe2hJUEqRi-3" vertex="1">
                    <mxGeometry x="45" y="80" width="10" height="120" as="geometry"/>
                </mxCell>
                <mxCell id="SoR2m_-n7boe2hJUEqRi-6" value="Request user" style="verticalAlign=bottom;endArrow=block;shadow=0;strokeWidth=1;exitX=0.086;exitY=0.029;exitDx=0;exitDy=0;exitPerimeter=0;" parent="1" source="SoR2m_-n7boe2hJUEqRi-4" target="SoR2m_-n7boe2hJUEqRi-1" edge="1">
                    <mxGeometry relative="1" as="geometry">
                        <mxPoint x="435" y="350" as="sourcePoint"/>
                        <mxPoint x="605" y="350" as="targetPoint"/>
                        <Array as="points">
                            <mxPoint x="565" y="320"/>
                        </Array>
                    </mxGeometry>
                </mxCell>
                <mxCell id="SoR2m_-n7boe2hJUEqRi-7" value="CONNECT" style="verticalAlign=bottom;startArrow=oval;endArrow=block;startSize=8;shadow=0;strokeWidth=1;entryX=1.328;entryY=0.024;entryDx=0;entryDy=0;entryPerimeter=0;" parent="1" target="SoR2m_-n7boe2hJUEqRi-4" edge="1">
                    <mxGeometry relative="1" as="geometry">
                        <mxPoint x="675" y="313" as="sourcePoint"/>
                        <mxPoint x="695" y="300" as="targetPoint"/>
                    </mxGeometry>
                </mxCell>
                <mxCell id="SoR2m_-n7boe2hJUEqRi-8" value="" style="verticalAlign=bottom;endArrow=block;shadow=0;strokeWidth=1;exitX=0.983;exitY=0.24;exitDx=0;exitDy=0;exitPerimeter=0;entryX=-0.259;entryY=0.317;entryDx=0;entryDy=0;entryPerimeter=0;" parent="1" source="SoR2m_-n7boe2hJUEqRi-2" target="SoR2m_-n7boe2hJUEqRi-4" edge="1">
                    <mxGeometry relative="1" as="geometry">
                        <mxPoint x="600.8600000000001" y="324.64" as="sourcePoint"/>
                        <mxPoint x="595" y="330" as="targetPoint"/>
                        <Array as="points">
                            <mxPoint x="505" y="361"/>
                        </Array>
                    </mxGeometry>
                </mxCell>
                <mxCell id="SoR2m_-n7boe2hJUEqRi-9" value="User ID" style="edgeLabel;html=1;align=center;verticalAlign=middle;resizable=0;points=[];" parent="SoR2m_-n7boe2hJUEqRi-8" vertex="1" connectable="0">
                    <mxGeometry x="-0.1478" y="-1" relative="1" as="geometry">
                        <mxPoint x="10" y="-10" as="offset"/>
                    </mxGeometry>
                </mxCell>
                <mxCell id="SoR2m_-n7boe2hJUEqRi-12" style="edgeStyle=orthogonalEdgeStyle;rounded=0;orthogonalLoop=1;jettySize=auto;html=1;startArrow=none;" parent="1" source="SoR2m_-n7boe2hJUEqRi-17" target="SoR2m_-n7boe2hJUEqRi-15" edge="1">
                    <mxGeometry relative="1" as="geometry">
                        <mxPoint x="342.5899999999999" y="390.44999999999993" as="targetPoint"/>
                        <Array as="points">
                            <mxPoint x="420" y="421"/>
                        </Array>
                    </mxGeometry>
                </mxCell>
                <mxCell id="SoR2m_-n7boe2hJUEqRi-27" value="" style="edgeStyle=orthogonalEdgeStyle;rounded=0;orthogonalLoop=1;jettySize=auto;html=1;" parent="1" source="SoR2m_-n7boe2hJUEqRi-15" target="SoR2m_-n7boe2hJUEqRi-3" edge="1">
                    <mxGeometry relative="1" as="geometry">
                        <Array as="points">
                            <mxPoint x="513" y="420"/>
                            <mxPoint x="513" y="380"/>
                        </Array>
                    </mxGeometry>
                </mxCell>
                <mxCell id="SoR2m_-n7boe2hJUEqRi-28" value="Socket update" style="edgeLabel;html=1;align=center;verticalAlign=middle;resizable=0;points=[];" parent="SoR2m_-n7boe2hJUEqRi-27" vertex="1" connectable="0">
                    <mxGeometry x="-0.3724" y="2" relative="1" as="geometry">
                        <mxPoint x="24" y="-66" as="offset"/>
                    </mxGeometry>
                </mxCell>
                <mxCell id="SoR2m_-n7boe2hJUEqRi-15" value="" style="points=[];perimeter=orthogonalPerimeter;rounded=0;shadow=0;strokeWidth=1;" parent="1" vertex="1">
                    <mxGeometry x="470" y="390" width="10" height="50" as="geometry"/>
                </mxCell>
                <mxCell id="SoR2m_-n7boe2hJUEqRi-17" value="UserAction, DevID&lt;br&gt;Unique identifier" style="text;html=1;align=center;verticalAlign=middle;resizable=0;points=[];autosize=1;strokeColor=none;" parent="1" vertex="1">
                    <mxGeometry x="330" y="450" width="110" height="30" as="geometry"/>
                </mxCell>
                <mxCell id="SoR2m_-n7boe2hJUEqRi-18" value="" style="edgeStyle=orthogonalEdgeStyle;rounded=0;orthogonalLoop=1;jettySize=auto;html=1;entryX=0.259;entryY=0.015;entryDx=0;entryDy=0;entryPerimeter=0;endArrow=none;" parent="1" source="SoR2m_-n7boe2hJUEqRi-10" edge="1">
                    <mxGeometry relative="1" as="geometry">
                        <mxPoint x="296.48" y="410.0344827586208" as="sourcePoint"/>
                        <mxPoint x="359.97" y="450.44999999999993" as="targetPoint"/>
                        <Array as="points">
                            <mxPoint x="359.48" y="410"/>
                        </Array>
                    </mxGeometry>
                </mxCell>
                <mxCell id="2" value="PUBLISHER" style="rounded=1;whiteSpace=wrap;html=1;" parent="1" vertex="1">
                    <mxGeometry x="240" y="170" width="120" height="30" as="geometry"/>
                </mxCell>
                <mxCell id="3" value="SUBSCRIBER" style="rounded=1;whiteSpace=wrap;html=1;" parent="1" vertex="1">
                    <mxGeometry x="415" y="170" width="120" height="30" as="geometry"/>
                </mxCell>
                <mxCell id="4" value="ZMQ - IO&lt;br&gt;PUBLISHER - SUBSCRIBER" style="rounded=1;whiteSpace=wrap;html=1;" parent="1" vertex="1">
                    <mxGeometry x="300" y="100" width="180" height="40" as="geometry"/>
                </mxCell>
                <mxCell id="5" value="REQUEST" style="rounded=1;whiteSpace=wrap;html=1;" parent="1" vertex="1">
                    <mxGeometry x="777.5" y="170" width="120" height="30" as="geometry"/>
                </mxCell>
                <mxCell id="6" value="REPLY" style="rounded=1;whiteSpace=wrap;html=1;" parent="1" vertex="1">
                    <mxGeometry x="952.5" y="170" width="120" height="30" as="geometry"/>
                </mxCell>
                <mxCell id="7" value="ZMQ - COMS&lt;br&gt;REQUEST - REPLY" style="rounded=1;whiteSpace=wrap;html=1;" parent="1" vertex="1">
                    <mxGeometry x="920" y="100" width="180" height="40" as="geometry"/>
                </mxCell>
                <mxCell id="8" value="LOWLEVEL" style="shape=umlLifeline;perimeter=lifelinePerimeter;container=1;collapsible=0;recursiveResize=0;rounded=0;shadow=0;strokeWidth=1;" parent="1" vertex="1">
                    <mxGeometry x="780" y="240" width="100" height="300" as="geometry"/>
                </mxCell>
                <mxCell id="9" value="" style="points=[];perimeter=orthogonalPerimeter;rounded=0;shadow=0;strokeWidth=1;" parent="8" vertex="1">
                    <mxGeometry x="45" y="70" width="10" height="40" as="geometry"/>
                </mxCell>
                <mxCell id="10" value="CONNECT" style="verticalAlign=bottom;startArrow=oval;endArrow=block;startSize=8;shadow=0;strokeWidth=1;" parent="8" target="9" edge="1">
                    <mxGeometry relative="1" as="geometry">
                        <mxPoint x="-15" y="70" as="sourcePoint"/>
                    </mxGeometry>
                </mxCell>
                <mxCell id="11" value="" style="points=[];perimeter=orthogonalPerimeter;rounded=0;shadow=0;strokeWidth=1;" parent="8" vertex="1">
                    <mxGeometry x="45" y="230" width="10" height="60" as="geometry"/>
                </mxCell>
                <mxCell id="13" value="DISPATCHER" style="shape=umlLifeline;perimeter=lifelinePerimeter;container=1;collapsible=0;recursiveResize=0;rounded=0;shadow=0;strokeWidth=1;" parent="1" vertex="1">
                    <mxGeometry x="960" y="240" width="100" height="300" as="geometry"/>
                </mxCell>
                <mxCell id="14" value="" style="points=[];perimeter=orthogonalPerimeter;rounded=0;shadow=0;strokeWidth=1;" parent="13" vertex="1">
                    <mxGeometry x="45" y="80" width="10" height="50" as="geometry"/>
                </mxCell>
                <mxCell id="60" value="" style="points=[];perimeter=orthogonalPerimeter;rounded=0;shadow=0;strokeWidth=1;" parent="13" vertex="1">
                    <mxGeometry x="45" y="145" width="10" height="50" as="geometry"/>
                </mxCell>
                <mxCell id="15" value="Unique Identifier" style="verticalAlign=bottom;endArrow=open;dashed=1;endSize=8;shadow=0;strokeWidth=1;entryX=1.155;entryY=0.916;entryDx=0;entryDy=0;entryPerimeter=0;" parent="1" target="9" edge="1">
                    <mxGeometry relative="1" as="geometry">
                        <mxPoint x="1000" y="347" as="targetPoint"/>
                        <mxPoint x="1000" y="347.0000000000001" as="sourcePoint"/>
                    </mxGeometry>
                </mxCell>
                <mxCell id="16" value="connect" style="verticalAlign=bottom;endArrow=block;entryX=0;entryY=0;shadow=0;strokeWidth=1;" parent="1" source="9" target="14" edge="1">
                    <mxGeometry relative="1" as="geometry">
                        <mxPoint x="935" y="320" as="sourcePoint"/>
                    </mxGeometry>
                </mxCell>
                <mxCell id="19" value="" style="edgeStyle=orthogonalEdgeStyle;rounded=0;orthogonalLoop=1;jettySize=auto;html=1;entryX=0.007;entryY=0.279;entryDx=0;entryDy=0;entryPerimeter=0;endArrow=none;" parent="1" source="11" target="20" edge="1">
                    <mxGeometry relative="1" as="geometry">
                        <mxPoint x="835" y="480.0344827586208" as="sourcePoint"/>
                        <mxPoint x="898.4900000000002" y="520.4499999999999" as="targetPoint"/>
                        <Array as="points">
                            <mxPoint x="898" y="480"/>
                            <mxPoint x="898" y="481"/>
                        </Array>
                    </mxGeometry>
                </mxCell>
                <mxCell id="21" value="HEARTBEAT - POOLING" style="edgeLabel;html=1;align=center;verticalAlign=middle;resizable=0;points=[];" parent="19" vertex="1" connectable="0">
                    <mxGeometry x="-0.176" y="1" relative="1" as="geometry">
                        <mxPoint x="16" as="offset"/>
                    </mxGeometry>
                </mxCell>
                <mxCell id="22" value="OK/CMD" style="edgeStyle=orthogonalEdgeStyle;rounded=0;orthogonalLoop=1;jettySize=auto;html=1;" parent="1" source="20" edge="1">
                    <mxGeometry relative="1" as="geometry">
                        <mxPoint x="837" y="503" as="targetPoint"/>
                        <Array as="points">
                            <mxPoint x="837" y="503"/>
                        </Array>
                    </mxGeometry>
                </mxCell>
                <mxCell id="20" value="" style="points=[];perimeter=orthogonalPerimeter;rounded=0;shadow=0;strokeWidth=1;" parent="1" vertex="1">
                    <mxGeometry x="1005" y="450" width="10" height="80" as="geometry"/>
                </mxCell>
                <mxCell id="36" value="BACKEND" style="shape=umlLifeline;perimeter=lifelinePerimeter;container=1;collapsible=0;recursiveResize=0;rounded=0;shadow=0;strokeWidth=1;" parent="1" vertex="1">
                    <mxGeometry x="1120" y="240" width="100" height="300" as="geometry"/>
                </mxCell>
                <mxCell id="44" style="edgeStyle=orthogonalEdgeStyle;rounded=0;orthogonalLoop=1;jettySize=auto;html=1;entryX=0.9;entryY=0.167;entryDx=0;entryDy=0;entryPerimeter=0;exitX=0.052;exitY=0.119;exitDx=0;exitDy=0;exitPerimeter=0;" parent="1" source="52" target="51" edge="1">
                    <mxGeometry relative="1" as="geometry">
                        <Array as="points">
                            <mxPoint x="1030" y="525"/>
                            <mxPoint x="1030" y="550"/>
                        </Array>
                    </mxGeometry>
                </mxCell>
                <mxCell id="45" value="Request validity" style="edgeLabel;html=1;align=center;verticalAlign=middle;resizable=0;points=[];" parent="44" vertex="1" connectable="0">
                    <mxGeometry x="0.1087" y="-2" relative="1" as="geometry">
                        <mxPoint x="6" y="-13" as="offset"/>
                    </mxGeometry>
                </mxCell>
                <mxCell id="46" value="" style="edgeStyle=orthogonalEdgeStyle;rounded=0;orthogonalLoop=1;jettySize=auto;html=1;" parent="1" source="48" edge="1">
                    <mxGeometry relative="1" as="geometry">
                        <Array as="points">
                            <mxPoint x="1208" y="580"/>
                            <mxPoint x="1208" y="450"/>
                        </Array>
                        <mxPoint x="1289.5" y="450" as="targetPoint"/>
                    </mxGeometry>
                </mxCell>
                <mxCell id="47" value="Socket update" style="edgeLabel;html=1;align=center;verticalAlign=middle;resizable=0;points=[];" parent="46" vertex="1" connectable="0">
                    <mxGeometry x="-0.3724" y="2" relative="1" as="geometry">
                        <mxPoint x="24" y="-66" as="offset"/>
                    </mxGeometry>
                </mxCell>
                <mxCell id="48" value="" style="points=[];perimeter=orthogonalPerimeter;rounded=0;shadow=0;strokeWidth=1;" parent="1" vertex="1">
                    <mxGeometry x="1165" y="460" width="10" height="130" as="geometry"/>
                </mxCell>
                <mxCell id="49" style="edgeStyle=orthogonalEdgeStyle;rounded=0;orthogonalLoop=1;jettySize=auto;html=1;entryX=0.5;entryY=0.933;entryDx=0;entryDy=0;entryPerimeter=0;exitX=1.1;exitY=0.66;exitDx=0;exitDy=0;exitPerimeter=0;" parent="1" source="51" target="52" edge="1">
                    <mxGeometry relative="1" as="geometry">
                        <Array as="points">
                            <mxPoint x="1084" y="580"/>
                            <mxPoint x="1084" y="567"/>
                        </Array>
                        <mxPoint x="979.48" y="580" as="sourcePoint"/>
                        <mxPoint x="1120" y="566.65" as="targetPoint"/>
                    </mxGeometry>
                </mxCell>
                <mxCell id="50" value="Validity assure" style="edgeLabel;html=1;align=center;verticalAlign=middle;resizable=0;points=[];" parent="49" vertex="1" connectable="0">
                    <mxGeometry x="0.0363" y="3" relative="1" as="geometry">
                        <mxPoint x="15" y="-14" as="offset"/>
                    </mxGeometry>
                </mxCell>
                <mxCell id="51" value="" style="points=[];perimeter=orthogonalPerimeter;rounded=0;shadow=0;strokeWidth=1;" parent="1" vertex="1">
                    <mxGeometry x="1005" y="540" width="10" height="60" as="geometry"/>
                </mxCell>
                <mxCell id="52" value="" style="points=[];perimeter=orthogonalPerimeter;rounded=0;shadow=0;strokeWidth=1;" parent="1" vertex="1">
                    <mxGeometry x="1155" y="520" width="10" height="50" as="geometry"/>
                </mxCell>
                <mxCell id="53" value="EVENT IO" style="verticalAlign=bottom;startArrow=oval;endArrow=block;startSize=8;shadow=0;strokeWidth=1;" parent="1" edge="1">
                    <mxGeometry relative="1" as="geometry">
                        <mxPoint x="1070" y="460" as="sourcePoint"/>
                        <mxPoint x="1169.5" y="460" as="targetPoint"/>
                        <Array as="points">
                            <mxPoint x="1110" y="460"/>
                        </Array>
                    </mxGeometry>
                </mxCell>
                <mxCell id="54" value="REQUEST" style="rounded=1;whiteSpace=wrap;html=1;" parent="1" vertex="1">
                    <mxGeometry x="1110" y="170" width="120" height="30" as="geometry"/>
                </mxCell>
                <mxCell id="55" value="RECONNECT" style="edgeStyle=orthogonalEdgeStyle;rounded=0;orthogonalLoop=1;jettySize=auto;html=1;entryX=-0.266;entryY=0.784;entryDx=0;entryDy=0;entryPerimeter=0;" parent="1" target="20" edge="1">
                    <mxGeometry relative="1" as="geometry">
                        <mxPoint x="1005" y="569.9955172413793" as="sourcePoint"/>
                        <mxPoint x="837" y="570.0299999999999" as="targetPoint"/>
                        <Array as="points">
                            <mxPoint x="960" y="570"/>
                            <mxPoint x="960" y="513"/>
                            <mxPoint x="1002" y="513"/>
                        </Array>
                    </mxGeometry>
                </mxCell>
                <mxCell id="56" value="" style="points=[];perimeter=orthogonalPerimeter;rounded=0;shadow=0;strokeWidth=1;" parent="1" vertex="1">
                    <mxGeometry x="1165" y="320" width="10" height="50" as="geometry"/>
                </mxCell>
                <mxCell id="57" value="USER COMMAND" style="verticalAlign=bottom;startArrow=oval;endArrow=block;startSize=8;shadow=0;strokeWidth=1;entryX=0.907;entryY=0.21;entryDx=0;entryDy=0;entryPerimeter=0;" parent="1" target="56" edge="1">
                    <mxGeometry relative="1" as="geometry">
                        <mxPoint x="1320" y="320" as="sourcePoint"/>
                        <mxPoint x="1349.5" y="320" as="targetPoint"/>
                        <Array as="points">
                            <mxPoint x="1290" y="320"/>
                        </Array>
                    </mxGeometry>
                </mxCell>
                <mxCell id="58" value="" style="edgeStyle=orthogonalEdgeStyle;rounded=0;orthogonalLoop=1;jettySize=auto;html=1;exitX=-0.334;exitY=0.927;exitDx=0;exitDy=0;exitPerimeter=0;entryX=0.976;entryY=0.406;entryDx=0;entryDy=0;entryPerimeter=0;" parent="1" source="56" target="60" edge="1">
                    <mxGeometry relative="1" as="geometry">
                        <Array as="points">
                            <mxPoint x="1100" y="366"/>
                            <mxPoint x="1100" y="405"/>
                        </Array>
                        <mxPoint x="1185" y="530" as="sourcePoint"/>
                        <mxPoint x="1020" y="420" as="targetPoint"/>
                    </mxGeometry>
                </mxCell>
                <mxCell id="59" value="Socket update" style="edgeLabel;html=1;align=center;verticalAlign=middle;resizable=0;points=[];" parent="58" vertex="1" connectable="0">
                    <mxGeometry x="-0.3724" y="2" relative="1" as="geometry">
                        <mxPoint x="24" y="-66" as="offset"/>
                    </mxGeometry>
                </mxCell>
                <mxCell id="62" value="HTTP" style="edgeLabel;html=1;align=center;verticalAlign=middle;resizable=0;points=[];" parent="58" vertex="1" connectable="0">
                    <mxGeometry x="0.6585" y="-1" relative="1" as="geometry">
                        <mxPoint as="offset"/>
                    </mxGeometry>
                </mxCell>
                <mxCell id="61" value="ENQUEUE CMD" style="edgeStyle=orthogonalEdgeStyle;rounded=0;orthogonalLoop=1;jettySize=auto;html=1;exitX=0.01;exitY=0.654;exitDx=0;exitDy=0;exitPerimeter=0;" parent="1" source="60" edge="1">
                    <mxGeometry x="-0.4125" y="-16" relative="1" as="geometry">
                        <mxPoint x="1000" y="416" as="sourcePoint"/>
                        <mxPoint x="1006" y="460" as="targetPoint"/>
                        <Array as="points">
                            <mxPoint x="1005" y="416"/>
                            <mxPoint x="930" y="416"/>
                            <mxPoint x="930" y="460"/>
                            <mxPoint x="1006" y="460"/>
                        </Array>
                        <mxPoint as="offset"/>
                    </mxGeometry>
                </mxCell>
                <mxCell id="63" value="" style="ellipse;whiteSpace=wrap;html=1;aspect=fixed;" vertex="1" parent="1">
                    <mxGeometry x="898" y="690" width="80" height="80" as="geometry"/>
                </mxCell>
                <mxCell id="64" value="" style="ellipse;whiteSpace=wrap;html=1;aspect=fixed;" vertex="1" parent="1">
                    <mxGeometry x="898" y="790" width="80" height="80" as="geometry"/>
                </mxCell>
                <mxCell id="65" value="" style="ellipse;whiteSpace=wrap;html=1;aspect=fixed;" vertex="1" parent="1">
                    <mxGeometry x="897.5" y="900" width="80" height="80" as="geometry"/>
                </mxCell>
                <mxCell id="70" style="edgeStyle=orthogonalEdgeStyle;rounded=0;orthogonalLoop=1;jettySize=auto;html=1;entryX=0;entryY=0.5;entryDx=0;entryDy=0;" edge="1" parent="1" source="66" target="63">
                    <mxGeometry relative="1" as="geometry"/>
                </mxCell>
                <mxCell id="71" style="edgeStyle=orthogonalEdgeStyle;rounded=0;orthogonalLoop=1;jettySize=auto;html=1;entryX=-0.006;entryY=0.571;entryDx=0;entryDy=0;entryPerimeter=0;" edge="1" parent="1" source="66" target="64">
                    <mxGeometry relative="1" as="geometry"/>
                </mxCell>
                <mxCell id="72" style="edgeStyle=orthogonalEdgeStyle;rounded=0;orthogonalLoop=1;jettySize=auto;html=1;entryX=0;entryY=0.5;entryDx=0;entryDy=0;" edge="1" parent="1" source="66" target="65">
                    <mxGeometry relative="1" as="geometry"/>
                </mxCell>
                <mxCell id="66" value="" style="rounded=1;whiteSpace=wrap;html=1;" vertex="1" parent="1">
                    <mxGeometry x="670" y="800" width="120" height="60" as="geometry"/>
                </mxCell>
            </root>
        </mxGraphModel>
    </diagram>
</mxfile>